PathFileType	4	(X/Y/Z)	C:\Users\Willi\Documents\UniDataLokal\DATA_Hans_PhD\TD05\3DGAIT_C_W31\marker_experimental.trc
DataRate	CameraRate	NumFrames	NumMarkers	Units	OrigDataRate	OrigDataStartFrame	OrigNumFrames
100.000000	100.000000	4	85	mm	100.000000	150	200
Frame#	Time	RBAK			C7			CLAV			T10			STRN			RASI			RPSI			LPSI			LASI			LPELV			RPELV			RTHI1			RTHI2			RTHI3			RTHI			RKNE			RPAT			RLKNEL			RLKNEM			RLPAT			RTIB1			RTIB2			RTIB3			RTIB			RANK			RHEEL			RTOE			RM5			LTHI1			LTHI2			LTHI3			LTHI			LKNE			LPAT			LLKNE			LLKNEM			LLPAT			LTIB1			LTIB2			LTIB3			LTIB			LANK			LHEEL			LTOE			LM5			*45			*46			*47			*48			*49			*50			*51			*52			*53			*54			*55			*56			*57			*58			*59			*60			*61			*62			*63			*64			*65			*66			*67			*68			*69			*70			*71			*72			*73			*74			*75			*76			*77			*78			*79			*80			*81			*82			*83			*84			
		X1	Y1	Z1	X2	Y2	Z2	X3	Y3	Z3	X4	Y4	Z4	X5	Y5	Z5	X6	Y6	Z6	X7	Y7	Z7	X8	Y8	Z8	X9	Y9	Z9	X10	Y10	Z10	X11	Y11	Z11	X12	Y12	Z12	X13	Y13	Z13	X14	Y14	Z14	X15	Y15	Z15	X16	Y16	Z16	X17	Y17	Z17	X18	Y18	Z18	X19	Y19	Z19	X20	Y20	Z20	X21	Y21	Z21	X22	Y22	Z22	X23	Y23	Z23	X24	Y24	Z24	X25	Y25	Z25	X26	Y26	Z26	X27	Y27	Z27	X28	Y28	Z28	X29	Y29	Z29	X30	Y30	Z30	X31	Y31	Z31	X32	Y32	Z32	X33	Y33	Z33	X34	Y34	Z34	X35	Y35	Z35	X36	Y36	Z36	X37	Y37	Z37	X38	Y38	Z38	X39	Y39	Z39	X40	Y40	Z40	X41	Y41	Z41	X42	Y42	Z42	X43	Y43	Z43	X44	Y44	Z44	X45	Y45	Z45	X46	Y46	Z46	X47	Y47	Z47	X48	Y48	Z48	X49	Y49	Z49	X50	Y50	Z50	X51	Y51	Z51	X52	Y52	Z52	X53	Y53	Z53	X54	Y54	Z54	X55	Y55	Z55	X56	Y56	Z56	X57	Y57	Z57	X58	Y58	Z58	X59	Y59	Z59	X60	Y60	Z60	X61	Y61	Z61	X62	Y62	Z62	X63	Y63	Z63	X64	Y64	Z64	X65	Y65	Z65	X66	Y66	Z66	X67	Y67	Z67	X68	Y68	Z68	X69	Y69	Z69	X70	Y70	Z70	X71	Y71	Z71	X72	Y72	Z72	X73	Y73	Z73	X74	Y74	Z74	X75	Y75	Z75	X76	Y76	Z76	X77	Y77	Z77	X78	Y78	Z78	X79	Y79	Z79	X80	Y80	Z80	X81	Y81	Z81	X82	Y82	Z82	X83	Y83	Z83	X84	Y84	Z84	X85	Y85	Z85	

151	1.5	542.8912353515624	1289.898559570312	-73.03972625732412	584.3062744140624	1382.942626953125	-228.7976837158202	683.7300415039061	1283.875	-235.4468841552733	523.8826293945311	1061.2109375	-235.0186462402343	730.3054809570311	1050.696411132812	-241.1617889404295	715.8980712890625	898.6368408203125	-112.2827606201171	528.6411743164062	923.892578125	-166.3892364501952	523.0479736328125	909.3743896484375	-278.1114807128905	704.1818237304689	894.7620239257812	-352.4696350097655	618.4667358398439	927.3588256835938	-394.8765869140624	631.2960815429686	952.8011474609375	-67.31753540039051	672.75341796875	603.121337890625	-55.71250534057605	714.81689453125	556.535888671875	-93.97881317138659	671.2171630859375	503.8145751953126	-80.07631683349597	625.6253051757812	520.1277465820312	-37.17961120605457	625.7577514648438	437.3709411621094	-84.95445251464832	695.1885375976562	434.0189208984376	-138.1990203857421	618.8340454101562	393.5972900390626	-89.02556610107411	626.2598876953125	397.0178833007813	-206.418731689453	676.2467041015625	378.7305603027344	-128.2359161376952	684.7791748046875	260.4560852050782	-118.1702270507811	653.7782592773438	204.8584289550782	-96.38085937499989	697.6484375	170.3787689208985	-133.0047607421874	614.5701904296875	123.5715637207032	-91.71668243408192	657.52587890625	68.33132171630864	-137.941680908203	647.7152709960938	34.89340209960942	-203.1081085205077	794.3455200195312	36.588306427002	-81.96101379394517	741.7888793945312	8.777201652526902	-60.92929077148424	711.1167602539064	608.8432006835938	-409.0274658203124	753.2153930664064	565.4168701171875	-386.825958251953	715.6222534179689	511.3432922363282	-404.1168518066405	660.8483886718751	512.8218383789062	-434.1574707031249	678.7228393554689	448.2330627441407	-398.2357788085936	756.0050048828126	411.8772888183594	-357.3693847656249	656.1021118164064	411.4917907714844	-394.8298034667968	689.013427734375	396.2914733886719	-277.9049987792968	691.3101196289064	362.3725585937501	-361.7257385253905	607.3337402343751	302.3371887207032	-361.7636108398436	537.8093261718751	311.6701354980469	-379.0842285156249	525.9892578125001	243.534423828125	-348.6241455078124	438.1229553222657	305.92578125	-358.9703979492187	400.6936645507813	206.9262847900391	-315.1709594726562	380.5423583984376	199.1908111572266	-249.0304565429687	416.0433959960938	69.6015548706055	-368.3113708496093	382.1467285156251	101.7133102416992	-379.3140869140624	nan	nan	nan	nan	nan	nan	nan	nan	nan	nan	nan	nan	nan	nan	nan	nan	nan	nan	nan	nan	nan	nan	nan	nan	nan	nan	nan	nan	nan	nan	nan	nan	nan	nan	nan	nan	nan	nan	nan	nan	nan	nan	nan	nan	nan	nan	nan	nan	nan	nan	nan	nan	nan	nan	nan	nan	nan	nan	nan	nan	nan	nan	nan	nan	nan	nan	nan	nan	nan	nan	nan	nan	nan	nan	nan	nan	nan	nan	nan	nan	nan	nan	nan	nan	nan	nan	nan	nan	nan	nan	nan	nan	nan	nan	nan	nan	nan	nan	nan	nan	nan	nan	nan	nan	nan	nan	nan	nan	nan	nan	nan	nan	nan	nan	nan	nan	nan	nan	nan	nan	
152	1.51	552.6477661132811	1290.906372070312	-70.9918212890624	593.1029052734374	1383.568359375	-227.5695495605468	692.1560668945311	1284.000244140625	-234.6921386718749	531.4929809570311	1062.03857421875	-232.5323028564452	737.7898559570311	1050.848388671875	-240.2523651123045	724.1764526367188	899.0261840820312	-111.4256134033202	536.4923095703125	924.204345703125	-164.1095123291015	530.0809326171875	909.5006103515625	-275.6461791992186	710.7323608398439	895.7383422851562	-351.6808166503905	624.1098632812501	927.7484130859375	-393.2849731445311	639.6820678710936	953.1749267578125	-65.81919097900379	679.552978515625	603.40185546875	-55.54772567749011	720.9131469726562	556.5820922851562	-94.37693023681628	677.0359497070312	504.1718750000001	-80.05766296386706	632.0877685546875	520.6636962890625	-36.57576370239246	630.7498168945312	437.9537658691407	-84.49277496337879	699.6614990234375	434.1716613769532	-138.2030181884764	623.2852172851562	394.1971740722657	-88.58847808837879	629.977294921875	397.8330078125001	-205.9747009277343	680.2056274414062	378.8031005859376	-128.158721923828	687.65087890625	260.3789672851563	-118.2818145751952	655.9615478515625	205.0929718017578	-96.49469757080067	699.3241577148438	170.1825561523438	-133.3218383789061	615.8026733398438	124.3224411010743	-91.79263305664051	657.9789428710938	68.61248016357426	-138.1610870361327	647.7279052734375	34.93967819213871	-203.1835784912108	794.4430541992188	36.59415817260747	-82.20298004150376	741.820556640625	8.906788825988816	-60.99382019042955	723.4670410156251	611.3829956054688	-409.3213806152343	767.0205078125001	569.134033203125	-387.5898132324218	730.7272949218751	514.0390014648438	-404.4591064453124	675.3610229492189	514.1810302734375	-433.7829589843749	695.9175415039064	450.1197814941407	-398.0965270996093	774.3380737304689	415.6087646484376	-357.6937561035155	674.4367675781251	413.1578979492188	-394.445587158203	708.0203247070312	399.0670776367188	-277.4277954101561	710.4809570312501	364.7372131347657	-361.2281188964843	626.9392700195314	303.9131774902344	-360.2376708984374	557.2171020507814	312.6914672851563	-377.2884826660155	545.8942260742189	244.8237915039063	-346.1167907714843	457.5941772460938	306.345947265625	-357.1044311523437	420.8713989257813	207.440902709961	-312.1872253417968	399.6381225585938	199.077865600586	-246.2666473388671	441.4701232910157	71.05711364746097	-365.0408020019531	406.4789428710938	101.7286453247071	-376.4573974609374	nan	nan	nan	nan	nan	nan	nan	nan	nan	nan	nan	nan	nan	nan	nan	nan	nan	nan	nan	nan	nan	nan	nan	nan	nan	nan	nan	nan	nan	nan	nan	nan	nan	nan	nan	nan	nan	nan	nan	nan	nan	nan	nan	nan	nan	nan	nan	nan	nan	nan	nan	nan	nan	nan	nan	nan	nan	nan	nan	nan	nan	nan	nan	nan	nan	nan	nan	nan	nan	nan	nan	nan	nan	nan	nan	nan	nan	nan	nan	nan	nan	nan	nan	nan	nan	nan	nan	nan	nan	nan	nan	nan	nan	nan	nan	nan	nan	nan	nan	nan	nan	nan	nan	nan	nan	nan	nan	nan	nan	nan	nan	nan	nan	nan	nan	nan	nan	nan	nan	nan	
153	1.52	562.3447875976561	1291.9013671875	-69.03509521484365	601.8292236328124	1384.169311523438	-226.4176940917968	700.4927368164061	1284.114379882812	-234.0349884033202	539.0606079101561	1062.842651367188	-230.1137084960937	745.2016601562499	1051.025756835938	-239.4289093017577	732.3848876953125	899.4141235351562	-110.6319732666014	544.2960815429688	924.5661010742188	-161.9506835937499	537.111572265625	909.7499389648438	-273.3443298339843	717.2854003906251	896.7550048828125	-350.9121093749999	629.9754028320312	928.34228515625	-391.7871093749999	648.0276489257811	953.594482421875	-64.41921997070301	686.3350219726562	603.6538696289062	-55.41841506957995	727.0289916992188	556.6123657226562	-94.76775360107409	682.8806762695312	504.5123596191407	-80.10009002685534	638.5388793945312	521.15771484375	-36.07886505126941	635.8050537109375	438.5222167968751	-84.13057708740223	704.2251586914062	434.3288879394532	-138.2819671630858	627.8029174804688	394.7886657714844	-88.24272918701161	633.82568359375	398.6380920410157	-205.6134033203124	684.2332763671875	378.8692626953126	-128.1636657714843	690.5839233398438	260.2957153320313	-118.4442901611327	658.1864624023438	205.3414611816407	-96.66595458984362	701.0573120117188	169.9969940185547	-133.6838226318358	617.0916137695312	125.1156005859375	-91.93476104736317	658.462158203125	68.90947723388676	-138.3987274169921	647.7531127929688	34.9961318969727	-203.2728729248046	794.55908203125	36.60772323608403	-82.4561386108397	741.8695068359375	9.091364860534714	-61.09494018554674	735.6162109375001	614.102783203125	-409.5187072753905	780.5051879882814	573.0626220703125	-388.1373901367186	745.5593261718751	516.9929809570312	-404.6308593749999	689.7520141601564	515.8051147460938	-433.3918151855468	712.8262939453126	452.2708129882813	-397.8364868164061	792.2902832031251	419.7427673339844	-357.8089904785155	692.4583740234376	414.9741210937501	-393.9455566406249	726.4590454101562	402.2602233886719	-276.8591003417968	729.4141845703126	367.3983764648438	-360.5481872558593	646.6559448242189	305.4603576660157	-358.5644531249999	576.7387084960939	313.2814941406251	-375.4555358886718	566.2369384765626	245.6830596923828	-343.4906921386718	477.1952209472657	305.7143249511719	-355.4752502441405	441.6316528320313	206.8002471923828	-309.2930908203124	419.2852783203126	197.6102142333985	-243.5501403808593	468.3819885253907	71.72964477539065	-361.8824462890624	432.1387634277344	100.6754379272461	-373.7142333984374	nan	nan	nan	nan	nan	nan	nan	nan	nan	nan	nan	nan	nan	nan	nan	nan	nan	nan	nan	nan	nan	nan	nan	nan	nan	nan	nan	nan	nan	nan	nan	nan	nan	nan	nan	nan	nan	nan	nan	nan	nan	nan	nan	nan	nan	nan	nan	nan	nan	nan	nan	nan	nan	nan	nan	nan	nan	nan	nan	nan	nan	nan	nan	nan	nan	nan	nan	nan	nan	nan	nan	nan	nan	nan	nan	nan	nan	nan	nan	nan	nan	nan	nan	nan	nan	nan	nan	nan	nan	nan	nan	nan	nan	nan	nan	nan	nan	nan	nan	nan	nan	nan	nan	nan	nan	nan	nan	nan	nan	nan	nan	nan	nan	nan	nan	nan	nan	nan	nan	nan	
154	1.53	571.9847412109374	1292.886840820312	-67.17489624023428	610.4907226562499	1384.748413085938	-225.3388061523436	708.7490234374999	1284.23193359375	-233.4695434570311	546.6028442382811	1063.624145507812	-227.7686920166014	752.5568237304686	1051.236572265625	-238.6822509765624	740.5157470703125	899.78759765625	-109.8660659790038	552.060302734375	924.9739990234375	-159.9235839843749	544.1597900390625	910.1204833984375	-271.2206726074218	723.8780517578126	897.8051147460938	-350.134063720703	636.1092529296875	929.1382446289062	-390.3755493164061	656.3269042968749	954.0299072265625	-63.10290908813464	693.08642578125	603.8743286132812	-55.30450439453112	733.1652221679688	556.618896484375	-95.10832214355456	688.7478637695312	504.8310546875001	-80.17946624755847	644.9608764648438	521.605224609375	-35.68252944946277	640.934814453125	439.0702819824219	-83.86376190185536	708.901123046875	434.4798583984376	-138.4246978759764	632.4043579101562	395.3663940429688	-87.98659515380848	637.8330078125	399.4257507324219	-205.3353424072264	688.3500366210938	378.9246826171876	-128.2471771240233	693.5929565429688	260.2012329101563	-118.6647491455077	660.4766845703125	205.5956420898438	-96.90053558349597	702.8677978515625	169.8169250488282	-134.099395751953	618.4630737304688	125.9380264282227	-92.15477752685536	658.9988403320312	69.22228240966801	-138.670684814453	647.8099975585938	35.06514358520512	-203.391876220703	794.7108154296875	36.62496566772466	-82.72172546386705	741.9375	9.338163375854538	-61.22948074340807	747.5704956054689	616.9745483398438	-409.5983886718749	793.6657714843751	577.15380859375	-388.4420166015623	760.1061401367189	520.16552734375	-404.6243591308593	704.0189819335939	517.6719360351562	-432.9956054687499	729.4028320312501	454.6463317871094	-397.4533691406249	809.8014526367189	424.2138366699219	-357.7343749999998	710.1008911132814	416.9076232910157	-393.3250732421874	744.3075561523438	405.7734375000001	-276.2166748046874	748.0490722656251	370.3114929199219	-359.7166442871093	666.4273071289064	306.9463806152344	-356.7896728515624	596.3195800781251	313.4137268066407	-373.5929260253905	586.9856567382814	246.0779266357422	-340.8010253906249	496.9048156738282	304.0269165039063	-354.009552001953	462.9778442382813	204.9773864746094	-306.4788818359374	439.6217346191407	194.7787780761719	-240.8578948974609	496.4522399902344	71.66438293457034	-358.8793334960936	458.8821105957032	98.66459655761722	-371.0624999999999	nan	nan	nan	nan	nan	nan	nan	nan	nan	nan	nan	nan	nan	nan	nan	nan	nan	nan	nan	nan	nan	nan	nan	nan	nan	nan	nan	nan	nan	nan	nan	nan	nan	nan	nan	nan	nan	nan	nan	nan	nan	nan	nan	nan	nan	nan	nan	nan	nan	nan	nan	nan	nan	nan	nan	nan	nan	nan	nan	nan	nan	nan	nan	nan	nan	nan	nan	nan	nan	nan	nan	nan	nan	nan	nan	nan	nan	nan	nan	nan	nan	nan	nan	nan	nan	nan	nan	nan	nan	nan	nan	nan	nan	nan	nan	nan	nan	nan	nan	nan	nan	nan	nan	nan	nan	nan	nan	nan	nan	nan	nan	nan	nan	nan	nan	nan	nan	nan	nan	nan	
